<?xml version="1.0" encoding="UTF-8" standalone="no"?>
<!DOCTYPE svg PUBLIC "-//W3C//DTD SVG 1.1//EN" "http://www.w3.org/Graphics/SVG/1.1/DTD/svg11.dtd">
<svg width="100%" height="100%" viewBox="0 0 1010 1000" version="1.1" xmlns="http://www.w3.org/2000/svg" xmlns:xlink="http://www.w3.org/1999/xlink" xml:space="preserve" xmlns:serif="http://www.serif.com/" style="fill-rule:evenodd;clip-rule:evenodd;stroke-linejoin:round;stroke-miterlimit:2;">
    <path d="M585.837,310.341L510,453.588C510,453.588 442.92,326.881 433.262,308.639C451.437,293.409 463,270.544 463,245C463,199.191 425.809,162 380,162C334.191,162 297,199.191 297,245C297,280.136 318.88,310.203 349.748,322.305L318.257,464.014L243.735,389.492C251.481,377.902 256,363.975 256,349C256,308.71 223.29,276 183,276C142.71,276 110,308.71 110,349C110,388.438 141.341,420.613 180.455,421.956L266.37,708.341C260.937,711.212 247.789,720.374 227.572,748.238C219.459,759.42 214.266,777.732 211.109,797.934C203.895,844.096 207.005,900.166 207.005,900.166C207.093,901.756 208.408,903 210,903L810,903C811.609,903 812.931,901.731 812.997,900.124C812.997,900.124 815.287,844.725 808.158,798.518C805.045,778.341 800.088,759.91 792.508,748.355C774.797,721.354 756.661,711.987 747.254,708.746L851.389,420.371C884.296,413.3 909,384.013 909,349C909,308.71 876.29,276 836,276C795.71,276 763,308.71 763,349C763,364.231 767.675,378.379 775.669,390.089L692.001,473.757L666.789,322.484C697.903,310.5 720,280.31 720,245C720,199.191 682.809,162 637,162C591.191,162 554,199.191 554,245C554,271.513 566.457,295.139 585.837,310.341ZM480,540C481.111,540 477.349,538.404 477.349,538.404C477.869,539.386 478.889,540 480,540Z" style="fill:white;"/>
    <path d="M589.68,309.493C569.866,294.923 557,271.452 557,245C557,200.847 592.847,165 637,165C681.153,165 717,200.847 717,245C717,279.894 694.611,309.601 663.421,320.527L690,480L779.58,390.42C771.044,378.816 766,364.492 766,349C766,310.366 797.366,279 836,279C874.634,279 906,310.366 906,349C906,383.145 881.5,411.612 849.14,417.766L743.362,710.688C751.048,712.736 770.734,720.63 790,750C814.656,787.587 810,900 810,900L210,900C210,900 203.681,786.275 230,750C256.319,713.725 270,710 270,710L182.7,418.999C144.203,418.837 113,387.534 113,349C113,310.366 144.366,279 183,279C221.634,279 253,310.366 253,349C253,364.237 248.121,378.344 239.841,389.841L320,470L353.243,320.408C322.231,309.39 300,279.771 300,245C300,200.847 335.847,165 380,165C424.153,165 460,200.847 460,245C460,270.49 448.053,293.211 429.458,307.865L510,460L589.68,309.493ZM184,325C197.798,325 209,336.202 209,350C209,363.798 197.798,375 184,375C170.202,375 159,363.798 159,350C159,336.202 170.202,325 184,325ZM835,325C848.798,325 860,336.202 860,350C860,363.798 848.798,375 835,375C821.202,375 810,363.798 810,350C810,336.202 821.202,325 835,325ZM379,213C395.557,213 409,226.443 409,243C409,259.557 395.557,273 379,273C362.443,273 349,259.557 349,243C349,226.443 362.443,213 379,213ZM638,213C654.557,213 668,226.443 668,243C668,259.557 654.557,273 638,273C621.443,273 608,259.557 608,243C608,226.443 621.443,213 638,213Z"/>
    <path d="M280,830C280.797,821.236 273.173,799.778 310,780C347.362,759.935 429.691,740.093 505,740C576.84,739.911 670.138,757.297 710,780C744.722,799.775 742.092,822.91 740,830L280,830ZM661,577L625,364L508,573L393,364L355,579L252,474L250,477L331,687C331,687 410.578,661.341 505,660C594.067,658.735 688,687.667 692,689L767,476L765,474L661,577ZM184,325C197.798,325 209,336.202 209,350C209,363.798 197.798,375 184,375C170.202,375 159,363.798 159,350C159,336.202 170.202,325 184,325ZM835,325C848.798,325 860,336.202 860,350C860,363.798 848.798,375 835,375C821.202,375 810,363.798 810,350C810,336.202 821.202,325 835,325ZM379,213C395.557,213 409,226.443 409,243C409,259.557 395.557,273 379,273C362.443,273 349,259.557 349,243C349,226.443 362.443,213 379,213ZM638,213C654.557,213 668,226.443 668,243C668,259.557 654.557,273 638,273C621.443,273 608,259.557 608,243C608,226.443 621.443,213 638,213Z" style="fill-rule:nonzero;stroke:white;stroke-width:7.5px;"/>
</svg>
