<?xml version="1.0" encoding="UTF-8" standalone="no"?>
<!DOCTYPE svg PUBLIC "-//W3C//DTD SVG 1.1//EN" "http://www.w3.org/Graphics/SVG/1.1/DTD/svg11.dtd">
<svg width="100%" height="100%" viewBox="0 0 385 385" version="1.1" xmlns="http://www.w3.org/2000/svg" xmlns:xlink="http://www.w3.org/1999/xlink" xml:space="preserve" xmlns:serif="http://www.serif.com/" style="fill-rule:evenodd;clip-rule:evenodd;stroke-linecap:round;stroke-linejoin:round;stroke-miterlimit:1.5;">
    <path d="M384.5,47.033C384.5,21.351 363.649,0.5 337.967,0.5L47.033,0.5C21.351,0.5 0.5,21.351 0.5,47.033L0.5,337.967C0.5,363.649 21.351,384.5 47.033,384.5L337.967,384.5C363.649,384.5 384.5,363.649 384.5,337.967L384.5,47.033ZM342.859,42.141L42.141,42.141L42.141,342.859L342.859,342.859L342.859,42.141ZM65,217L150.824,299.49L320.284,130.09L289,100L150.824,241L96,184.47L65,217Z" style="stroke:rgb(235,235,235);stroke-width:1px;"/>
</svg>
